# xmcd
#
# Track frame offsets:
#	150
#	14340
#	29415
#	40598
#	53078
#	63923
#	77716
#	90879
#	109802
#	120175
#	131193
#	143396
#
# Disc length: 2144 seconds
#
# Revision: 0
# Processed by: cddbd v1.5.2PL0 Copyright (c) Steve Scherf et al.
# Submitted via: audiograbber 1.83.01
#
DISCID=8a085e0c
DTITLE=Johnny Cash - Hello, I'm Johnny Cash
DYEAR=1970
DGENRE=Country
TTITLE0=Southwind
TTITLE1=The Devil To Pay
TTITLE2='Cause I Love You
TTITLE3=See Ruby Fall
TTITLE4=Route # 1, Box 144
TTITLE5=Sing A Traveling Song
TTITLE6=If I Were A Carpenter
TTITLE7=To Beat The Devil
TTITLE8=Blistered
TTITLE9=Wrinkled, Crikled, Wadded Dollar Bill
TTITLE10=I've Got A Thing About Trains
TTITLE11=Jesus Was A Carpenter
EXTD=
EXTT0=
EXTT1=
EXTT2=
EXTT3=
EXTT4=
EXTT5=
EXTT6=
EXTT7=
EXTT8=
EXTT9=
EXTT10=
EXTT11=
PLAYORDER=
